<?xml version="1.0" standalone="no"?>
<!DOCTYPE svg PUBLIC "-//W3C//DTD SVG 20010904//EN"
 "http://www.w3.org/TR/2001/REC-SVG-20010904/DTD/svg10.dtd">
<svg version="1.0" xmlns="http://www.w3.org/2000/svg"
 width="1598.000000pt" height="1594.000000pt" viewBox="0 0 1598.000000 1594.000000"
 preserveAspectRatio="xMidYMid meet">
<metadata>
Created by potrace 1.16, written by Peter Selinger 2001-2019
</metadata>
<g transform="translate(0.000000,1594.000000) scale(0.100000,-0.100000)"
fill="#000000" stroke="none">
<path d="M7820 15907 c-3 -2 -90 -7 -195 -10 -201 -6 -362 -18 -560 -42 -66
-8 -142 -17 -170 -20 -27 -3 -75 -9 -105 -15 -30 -5 -71 -12 -90 -14 -176 -24
-591 -114 -855 -187 -730 -202 -1473 -531 -2094 -928 -78 -50 -145 -91 -149
-91 -4 0 -23 -13 -42 -28 -19 -16 -98 -73 -175 -127 -371 -262 -652 -502
-1016 -865 -140 -140 -300 -307 -354 -370 -54 -63 -109 -126 -121 -140 -51
-56 -74 -85 -217 -270 -121 -157 -121 -158 -199 -270 -28 -41 -54 -77 -58 -80
-3 -3 -46 -68 -95 -145 -50 -77 -93 -141 -97 -143 -5 -2 -8 -7 -8 -12 0 -8
-122 -217 -138 -236 -5 -6 -13 -20 -16 -32 -4 -12 -13 -28 -19 -35 -7 -7 -43
-73 -81 -147 -38 -74 -73 -137 -78 -138 -4 -2 -6 -8 -2 -13 3 -5 0 -9 -6 -9
-6 0 -8 -4 -5 -10 3 -5 1 -10 -5 -10 -6 0 -8 -4 -5 -10 3 -5 1 -10 -5 -10 -6
0 -8 -4 -5 -10 3 -5 1 -10 -5 -10 -6 0 -8 -4 -5 -10 3 -6 1 -10 -6 -10 -7 0
-10 -3 -6 -6 3 -4 -15 -47 -40 -98 -26 -50 -48 -95 -49 -101 -1 -5 -29 -71
-62 -145 -32 -74 -92 -220 -131 -325 -40 -104 -75 -197 -78 -205 -4 -8 -7 -18
-8 -22 -2 -5 -4 -10 -5 -13 -1 -3 -4 -9 -5 -15 -1 -5 -4 -12 -5 -15 -1 -3 -4
-9 -5 -15 -1 -5 -4 -12 -5 -15 -1 -3 -4 -9 -5 -15 -1 -5 -4 -12 -5 -15 -1 -3
-4 -9 -5 -15 -1 -5 -3 -11 -5 -12 -1 -2 -3 -10 -5 -18 -1 -8 -17 -61 -35 -117
-17 -57 -31 -104 -30 -105 1 -2 -4 -16 -10 -33 -7 -16 -14 -41 -16 -55 -3 -14
-18 -71 -34 -127 -16 -56 -32 -116 -35 -135 -3 -18 -11 -51 -17 -73 -5 -22
-12 -51 -14 -65 -3 -14 -12 -54 -20 -90 -56 -243 -121 -702 -150 -1065 -30
-378 -20 -1091 21 -1430 73 -613 191 -1163 349 -1633 24 -72 42 -132 39 -132
-3 0 -1 -6 4 -12 8 -10 41 -96 48 -128 1 -3 6 -16 12 -30 6 -14 32 -79 57
-144 148 -380 425 -932 624 -1242 29 -45 52 -86 52 -92 0 -6 4 -12 8 -14 5 -2
26 -30 47 -63 62 -99 279 -407 327 -464 6 -7 54 -68 106 -135 88 -112 137
-172 196 -236 13 -14 47 -54 77 -89 159 -189 508 -534 754 -746 50 -43 97 -85
106 -94 9 -9 60 -50 113 -91 53 -41 96 -78 96 -82 0 -5 4 -8 10 -8 7 0 137
-96 223 -166 9 -8 19 -14 22 -14 5 0 251 -171 272 -190 7 -5 17 -10 23 -10 5
0 10 -3 10 -7 0 -5 18 -17 40 -27 22 -10 48 -27 58 -36 10 -10 28 -20 39 -24
10 -3 28 -14 39 -24 28 -24 55 -41 87 -53 15 -6 27 -15 27 -20 0 -5 5 -9 11
-9 11 0 189 -98 199 -109 14 -16 533 -273 543 -269 1 0 22 -10 47 -22 25 -13
50 -25 55 -26 6 -1 39 -15 75 -32 36 -16 103 -44 150 -62 47 -18 91 -37 98
-42 6 -6 12 -8 12 -5 0 3 44 -12 98 -32 159 -62 538 -182 742 -236 153 -40
607 -134 730 -151 19 -2 42 -7 51 -10 14 -4 82 -13 299 -39 19 -2 53 -6 75 -9
201 -26 509 -40 860 -40 416 0 623 12 1025 59 319 38 749 125 1115 226 294 81
773 248 960 334 28 13 111 50 185 83 150 67 496 245 665 341 121 70 442 271
491 308 17 13 36 23 42 23 7 0 12 4 12 8 0 5 46 40 103 78 56 38 104 71 107
74 3 3 79 64 170 135 475 371 988 877 1330 1312 36 46 68 83 73 83 4 0 7 5 7
10 0 9 29 48 133 180 7 9 32 46 57 83 25 37 48 67 52 67 5 0 8 4 8 9 0 9 135
216 166 254 8 9 14 20 14 22 0 3 29 51 64 108 140 224 338 595 445 832 47 105
66 145 90 196 11 25 21 49 21 53 0 3 8 25 19 49 10 23 27 65 36 92 10 28 26
68 36 90 20 44 209 605 204 605 -2 0 3 21 11 47 22 71 95 353 101 388 3 17 16
76 29 133 13 57 27 120 30 140 3 20 16 100 30 177 34 195 70 493 91 735 23
284 23 935 0 1219 -32 383 -87 762 -157 1081 -16 74 -32 146 -34 160 -3 14
-12 50 -20 82 -8 31 -18 67 -20 80 -22 102 -170 575 -223 713 -19 50 -36 95
-37 100 -2 6 -9 24 -16 40 -6 17 -23 59 -37 95 -59 157 -132 314 -286 620
-149 295 -179 352 -188 360 -3 3 -20 32 -39 65 -62 110 -241 388 -358 555
-159 226 -355 475 -540 686 -154 174 -419 446 -590 603 -128 117 -406 354
-488 413 -16 13 -37 29 -45 35 -38 33 -85 68 -219 163 -80 56 -168 120 -196
141 -28 22 -53 39 -56 39 -7 0 -317 194 -335 210 -7 5 -15 10 -19 10 -4 0 -74
38 -156 85 -167 96 -409 219 -573 291 -60 26 -113 53 -117 59 -4 5 -8 7 -8 3
0 -4 -28 5 -62 21 -35 15 -130 54 -213 85 -82 32 -163 64 -180 71 -69 31 -651
210 -750 230 -11 3 -78 18 -150 35 -200 47 -171 41 -420 85 -193 34 -375 60
-480 70 -27 3 -66 7 -85 10 -155 22 -975 57 -990 42z m705 -493 c1623 -115
3117 -735 4361 -1809 190 -165 573 -547 735 -735 1078 -1246 1699 -2738 1821
-4380 16 -227 16 -844 0 -1070 -137 -1820 -883 -3457 -2163 -4739 -756 -758
-1626 -1325 -2614 -1705 -681 -262 -1379 -417 -2150 -478 -217 -16 -856 -16
-1075 0 -1645 127 -3117 738 -4357 1809 -190 164 -582 556 -746 746 -909 1052
-1495 2291 -1726 3647 -118 692 -135 1459 -50 2175 128 1079 500 2129 1081
3053 792 1259 1972 2281 3318 2872 1122 493 2333 701 3565 614z"/>
<path d="M7764 14906 c-48 -21 -74 -61 -74 -115 0 -74 48 -121 125 -121 55 0
94 25 116 75 31 71 7 130 -67 161 -41 17 -60 17 -100 0z"/>
<path d="M8394 14890 c-30 -12 -62 -56 -70 -95 -21 -111 139 -190 220 -108 59
59 51 152 -16 193 -34 21 -96 26 -134 10z"/>
<path d="M7125 14860 c-11 -4 -31 -20 -45 -35 -20 -22 -25 -37 -25 -82 0 -49
3 -58 31 -83 111 -99 276 20 209 150 -26 51 -109 76 -170 50z"/>
<path d="M9011 14805 c-35 -30 -55 -83 -46 -125 16 -72 130 -122 194 -84 59
35 80 127 40 178 -47 60 -135 75 -188 31z"/>
<path d="M6493 14755 c-89 -38 -97 -177 -13 -220 87 -45 190 14 193 110 1 49
-20 82 -68 105 -48 23 -68 24 -112 5z"/>
<path d="M9649 14675 c-30 -16 -59 -70 -59 -110 0 -123 188 -165 246 -54 32
62 8 131 -56 164 -36 19 -97 19 -131 0z"/>
<path d="M5890 14600 c-106 -25 -126 -176 -29 -226 66 -34 158 -4 185 61 18
44 18 59 -3 102 -11 24 -30 42 -57 54 -45 20 -46 20 -96 9z"/>
<path d="M10271 14493 c-23 -11 -40 -31 -54 -62 -18 -41 -19 -49 -6 -85 16
-45 50 -74 100 -85 106 -24 195 88 140 176 -37 59 -122 85 -180 56z"/>
<path d="M5272 14372 c-73 -39 -96 -132 -46 -191 48 -57 132 -60 189 -7 66 63
55 155 -24 196 -49 24 -76 25 -119 2z"/>
<path d="M10864 14250 c-30 -12 -62 -56 -70 -94 -17 -91 83 -173 174 -143 69
23 107 127 66 185 -33 47 -118 73 -170 52z"/>
<path d="M4693 14091 c-48 -22 -73 -62 -73 -116 0 -68 53 -115 131 -115 35 0
48 6 80 39 35 34 39 44 39 88 0 41 -5 54 -27 75 -27 26 -72 48 -96 48 -7 0
-31 -9 -54 -19z"/>
<path d="M11435 13951 c-40 -18 -68 -59 -73 -109 -4 -41 0 -52 23 -80 75 -90
182 -79 220 21 14 38 15 51 5 82 -20 61 -120 110 -175 86z"/>
<path d="M4135 13760 c-111 -73 -68 -230 63 -230 64 0 132 69 132 135 0 90
-117 147 -195 95z"/>
<path d="M11941 13575 c-35 -30 -55 -83 -46 -124 6 -29 44 -70 82 -90 29 -15
94 -14 114 2 28 21 59 80 59 112 0 98 -135 162 -209 100z"/>
<path d="M3619 13377 c-77 -51 -87 -140 -23 -196 81 -72 214 -8 214 103 0 31
-7 45 -39 77 -32 32 -46 39 -78 39 -25 0 -53 -9 -74 -23z"/>
<path d="M12454 13181 c-37 -23 -67 -90 -58 -129 11 -46 42 -80 89 -97 55 -22
88 -14 132 30 28 28 33 40 33 82 0 54 -16 80 -70 112 -43 26 -86 27 -126 2z"/>
<path d="M3152 12960 c-90 -55 -97 -181 -11 -226 108 -55 238 70 181 175 -20
38 -73 71 -112 71 -14 0 -40 -9 -58 -20z"/>
<path d="M12894 12717 c-30 -28 -37 -42 -41 -83 -5 -44 -2 -54 23 -83 56 -67
136 -75 193 -22 61 57 48 147 -28 198 -51 35 -103 31 -147 -10z"/>
<path d="M2703 12485 c-33 -23 -63 -79 -63 -117 0 -83 104 -143 180 -105 60
30 91 133 54 185 -34 49 -126 69 -171 37z"/>
<path d="M13322 12244 c-32 -22 -52 -67 -52 -115 0 -35 6 -48 39 -80 35 -35
44 -39 89 -39 43 0 55 5 80 30 57 57 54 128 -9 184 -32 30 -47 36 -82 36 -23
0 -53 -7 -65 -16z"/>
<path d="M2299 11962 c-21 -21 -41 -50 -44 -65 -25 -99 77 -186 167 -143 66
32 101 124 69 185 -18 33 -71 61 -115 61 -31 0 -45 -7 -77 -38z"/>
<path d="M13699 11723 c-56 -34 -75 -112 -44 -173 16 -31 80 -70 115 -70 57 0
120 66 120 125 0 64 -72 135 -135 135 -16 0 -42 -8 -56 -17z"/>
<path d="M1974 11441 c-37 -22 -64 -76 -64 -125 0 -82 107 -142 178 -101 65
39 92 137 51 189 -44 55 -110 70 -165 37z"/>
<path d="M14043 11183 c-31 -6 -81 -66 -88 -106 -9 -45 24 -111 67 -133 36
-19 87 -21 117 -4 55 29 78 123 45 180 -27 44 -89 72 -141 63z"/>
<path d="M1694 10874 c-39 -19 -74 -80 -74 -131 0 -124 172 -156 230 -43 39
76 16 146 -56 176 -42 18 -61 17 -100 -2z"/>
<path d="M5785 10808 c-2 -7 -423 -1214 -934 -2683 -511 -1468 -948 -2724
-972 -2790 -125 -358 -249 -540 -421 -620 -110 -50 -200 -65 -398 -65 l-170 0
0 -45 0 -45 1065 0 1065 0 0 45 0 45 -194 0 c-645 0 -886 119 -886 437 0 155
3 166 335 1115 l220 628 1190 0 1190 0 273 -736 c150 -405 284 -773 297 -819
47 -162 53 -321 16 -417 -18 -48 -84 -110 -146 -139 -104 -47 -189 -60 -432
-66 l-223 -6 0 -43 0 -44 1200 0 1200 0 0 44 0 44 -117 4 c-76 3 -136 11 -168
22 -119 42 -203 129 -277 286 -22 47 -541 1383 -1152 2970 l-1112 2885 -222 3
c-173 2 -223 0 -227 -10z m-40 -898 c111 -357 236 -704 673 -1870 l418 -1115
-578 -3 c-318 -1 -838 -1 -1156 0 l-577 3 359 1025 c197 564 451 1302 564
1640 l205 615 13 -40 c7 -22 43 -137 79 -255z"/>
<path d="M6900 10776 l0 -43 148 -6 c155 -6 233 -22 312 -62 94 -48 186 -167
250 -325 16 -41 482 -1357 1034 -2925 l1004 -2850 188 0 189 0 921 2790 c506
1535 940 2838 964 2897 85 213 195 360 315 419 95 47 176 59 393 59 l192 0 0
45 0 45 -1065 0 -1065 0 0 -45 0 -45 318 0 c340 0 460 -11 566 -50 89 -34 136
-75 176 -155 34 -68 35 -73 34 -180 -1 -92 -7 -132 -37 -245 -20 -74 -275
-866 -567 -1760 -611 -1868 -811 -2489 -901 -2787 -35 -117 -66 -209 -70 -205
-3 4 -14 39 -23 77 -97 399 -234 815 -924 2800 -349 1007 -646 1868 -658 1914
-33 121 -49 267 -35 331 41 190 167 249 549 258 l203 4 -3 42 -3 41 -1202 3
-1203 2 0 -44z"/>
<path d="M14283 10584 c-41 -21 -77 -91 -68 -133 21 -95 136 -143 204 -85 71
60 52 184 -34 220 -43 18 -62 17 -102 -2z"/>
<path d="M1447 10272 c-31 -19 -67 -85 -67 -123 0 -57 68 -119 130 -119 34 0
79 29 100 63 24 39 26 114 4 145 -35 50 -115 67 -167 34z"/>
<path d="M14491 9983 c-44 -22 -75 -87 -65 -139 15 -79 98 -129 166 -101 53
23 71 51 76 115 3 48 0 62 -19 86 -23 29 -74 56 -106 56 -10 0 -33 -8 -52 -17z"/>
<path d="M1280 9662 c-61 -30 -92 -136 -54 -190 51 -74 177 -66 210 13 33 79
8 152 -62 181 -43 18 -52 18 -94 -4z"/>
<path d="M14615 9337 c-46 -46 -54 -93 -26 -151 35 -71 120 -98 175 -55 104
82 51 239 -80 239 -28 0 -44 -8 -69 -33z"/>
<path d="M1144 9022 c-72 -58 -69 -178 6 -217 69 -36 146 -9 175 62 28 66 14
118 -41 154 -37 24 -111 25 -140 1z"/>
<path d="M14732 8726 c-40 -22 -62 -66 -62 -125 0 -49 3 -57 36 -87 29 -28 43
-34 80 -34 36 0 51 6 81 33 31 29 37 41 41 88 3 45 0 59 -19 83 -39 49 -110
69 -157 42z"/>
<path d="M1089 8393 c-63 -39 -81 -146 -34 -197 43 -46 102 -58 155 -31 38 20
60 63 60 118 0 94 -105 158 -181 110z"/>
<path d="M14760 8087 c-42 -21 -70 -74 -70 -132 0 -44 4 -55 30 -80 24 -23 41
-30 89 -33 53 -4 61 -2 91 25 28 25 34 38 37 84 5 66 -17 107 -70 132 -42 20
-73 21 -107 4z"/>
<path d="M1092 7750 c-107 -67 -61 -240 64 -240 39 0 51 5 79 33 81 81 40 210
-71 223 -28 4 -48 -1 -72 -16z"/>
<path d="M14711 7414 c-61 -51 -66 -151 -10 -198 37 -32 68 -40 113 -32 86 16
127 155 63 213 -56 51 -118 58 -166 17z"/>
<path d="M1148 7115 c-52 -29 -75 -117 -45 -175 19 -37 74 -70 118 -70 105 0
151 143 71 222 -36 37 -102 47 -144 23z"/>
<path d="M14643 6794 c-21 -10 -40 -32 -54 -61 -29 -60 -21 -107 26 -150 81
-76 205 -13 205 104 0 41 -35 92 -75 109 -43 18 -62 17 -102 -2z"/>
<path d="M1264 6481 c-64 -39 -73 -151 -16 -202 85 -76 202 -23 202 91 0 103
-101 163 -186 111z"/>
<path d="M14505 6176 c-41 -18 -61 -43 -74 -93 -15 -55 -6 -86 34 -122 43 -38
83 -46 129 -27 47 20 76 68 76 128 0 57 -34 103 -88 118 -45 12 -40 12 -77 -4z"/>
<path d="M1450 5873 c-45 -23 -73 -75 -66 -126 9 -75 59 -120 133 -120 40 0
50 4 80 36 32 35 38 54 33 107 -7 87 -103 142 -180 103z"/>
<path d="M14288 5565 c-35 -20 -68 -83 -68 -130 0 -66 53 -115 126 -115 29 0
44 8 74 38 86 86 49 205 -67 218 -23 3 -49 -2 -65 -11z"/>
<path d="M1693 5276 c-122 -55 -77 -246 57 -246 93 0 150 106 100 187 -36 60
-101 84 -157 59z"/>
<path d="M14000 4952 c-48 -47 -59 -95 -35 -145 22 -47 59 -70 111 -70 71 0
124 56 124 131 0 73 -50 122 -126 122 -29 0 -44 -8 -74 -38z"/>
<path d="M1985 4710 c-91 -37 -99 -178 -12 -230 51 -31 100 -26 145 14 34 32
37 39 37 89 0 45 -5 60 -25 82 -46 49 -97 65 -145 45z"/>
<path d="M13686 4400 c-93 -82 -57 -206 62 -218 44 -4 52 -1 85 28 47 40 65
96 47 140 -34 82 -129 107 -194 50z"/>
<path d="M2331 4167 c-71 -25 -102 -116 -61 -182 30 -48 72 -69 127 -62 111
12 144 140 57 216 -19 17 -41 31 -49 31 -7 0 -19 2 -27 4 -7 3 -28 0 -47 -7z"/>
<path d="M13334 3891 c-41 -25 -77 -99 -68 -138 16 -70 103 -116 167 -89 65
27 104 120 75 176 -19 34 -75 70 -112 70 -17 0 -45 -9 -62 -19z"/>
<path d="M2697 3650 c-36 -29 -57 -71 -57 -114 0 -27 9 -46 36 -76 57 -63 131
-67 184 -10 75 81 22 204 -93 217 -33 4 -48 0 -70 -17z"/>
<path d="M12933 3415 c-40 -17 -83 -80 -83 -123 0 -73 52 -122 129 -122 49 0
92 34 115 90 26 66 -1 126 -71 156 -39 17 -49 17 -90 -1z"/>
<path d="M3115 3166 c-36 -38 -51 -90 -36 -128 13 -33 73 -85 109 -93 69 -15
142 51 142 128 0 70 -62 127 -140 127 -36 0 -48 -6 -75 -34z"/>
<path d="M12447 2940 c-66 -58 -73 -131 -18 -184 38 -36 104 -45 150 -22 90
47 94 178 7 220 -54 25 -100 21 -139 -14z"/>
<path d="M3595 2738 c-90 -83 -29 -218 99 -218 38 0 48 5 74 34 41 47 48 86
25 133 -24 49 -75 83 -125 83 -29 0 -46 -8 -73 -32z"/>
<path d="M11947 2541 c-92 -81 -60 -205 57 -218 55 -7 105 22 130 74 25 53 20
89 -17 129 -28 31 -42 37 -84 41 -45 5 -53 2 -86 -26z"/>
<path d="M4144 2391 c-11 -5 -33 -23 -47 -41 -37 -43 -38 -115 -3 -153 83 -89
194 -69 227 42 9 32 8 44 -6 74 -28 60 -117 101 -171 78z"/>
<path d="M11445 2206 c-106 -46 -114 -180 -15 -231 39 -20 65 -19 110 6 102
57 91 198 -18 229 -45 12 -40 12 -77 -4z"/>
<path d="M4678 2044 c-54 -29 -76 -118 -41 -170 19 -30 82 -64 117 -64 67 0
116 53 116 126 0 93 -109 154 -192 108z"/>
<path d="M10839 1871 c-35 -35 -39 -44 -39 -89 0 -41 5 -55 28 -80 49 -52 124
-55 182 -6 92 78 36 214 -89 214 -37 0 -49 -6 -82 -39z"/>
<path d="M5234 1744 c-29 -30 -34 -42 -34 -85 0 -42 5 -55 28 -79 33 -32 99
-55 134 -47 37 10 75 50 88 94 24 81 -42 153 -141 153 -35 0 -47 -6 -75 -36z"/>
<path d="M10262 1640 c-34 -21 -62 -72 -62 -112 0 -41 35 -85 84 -103 43 -17
49 -17 90 -1 24 9 52 29 62 43 22 34 30 104 14 132 -30 57 -127 78 -188 41z"/>
<path d="M5856 1545 c-74 -58 -73 -171 2 -209 79 -40 147 -24 181 43 31 59 27
95 -13 138 -30 33 -39 37 -92 40 -42 3 -65 -1 -78 -12z"/>
<path d="M9652 1450 c-40 -25 -66 -81 -58 -128 13 -85 114 -126 198 -81 49 26
73 116 44 167 -33 60 -122 80 -184 42z"/>
<path d="M6479 1383 c-38 -23 -59 -64 -59 -113 0 -34 6 -48 33 -75 56 -56 135
-59 188 -6 60 60 45 152 -30 191 -48 24 -97 25 -132 3z"/>
<path d="M9053 1333 c-34 -7 -81 -59 -89 -99 -24 -129 172 -199 239 -85 19 33
22 89 6 124 -21 47 -89 73 -156 60z"/>
<path d="M7102 1274 c-47 -33 -66 -112 -38 -162 29 -54 118 -79 178 -51 55 25
83 110 55 166 -29 56 -143 84 -195 47z"/>
<path d="M8376 1235 c-91 -84 -38 -215 87 -215 124 0 175 169 67 225 -47 24
-122 20 -154 -10z"/>
<path d="M7770 1237 c-64 -22 -98 -107 -69 -170 15 -32 78 -67 121 -67 74 0
138 80 123 152 -7 28 -66 88 -88 88 -7 0 -21 2 -32 5 -11 2 -36 -1 -55 -8z"/>
</g>
</svg>
